<?xml version="1.0" standalone="no"?>
<!DOCTYPE svg PUBLIC "-//W3C//DTD SVG 20010904//EN"
 "http://www.w3.org/TR/2001/REC-SVG-20010904/DTD/svg10.dtd">
<svg version="1.0" xmlns="http://www.w3.org/2000/svg"
 width="598.000000pt" height="598.000000pt" viewBox="0 0 598.000000 598.000000"
 preserveAspectRatio="xMidYMid meet">
<metadata>
Created by potrace 1.11, written by Peter Selinger 2001-2013
</metadata>
<g transform="translate(0.000000,598.000000) scale(0.100000,-0.100000)"
fill="#000000" stroke="none">
<path d="M783 5968 c-55 -12 -80 -47 -92 -130 -9 -63 -10 -1054 -1 -1061 3 -2
37 -30 75 -63 39 -32 86 -71 105 -86 140 -109 266 -206 398 -305 l152 -116 0
-1074 c0 -846 -3 -1077 -13 -1087 -47 -48 -434 -458 -492 -521 -61 -67 -101
-118 -111 -143 -12 -27 -16 -116 -17 -395 l-1 -157 -105 0 c-147 -1 -180 -7
-227 -43 l-41 -31 1 -326 c1 -309 2 -327 22 -360 41 -71 -186 -65 2571 -66
l2492 -1 26 27 c15 15 31 45 36 66 5 22 8 174 6 339 -3 398 6 382 -225 391
-75 3 -137 6 -138 7 -1 1 -4 117 -7 257 -3 140 -7 262 -9 271 -4 18 -60 89
-146 184 -40 44 -241 262 -286 310 -15 16 -65 70 -110 118 l-81 88 0 1072 0
1072 135 103 c74 57 148 112 163 124 15 12 41 31 56 42 71 52 281 218 324 257
37 35 48 52 52 84 7 47 6 852 0 975 -5 99 -10 127 -25 146 -30 35 -77 38 -540
39 -413 0 -458 -2 -487 -17 -55 -31 -71 -99 -72 -325 l-1 -103 -255 0 -255 0
-1 48 c-6 308 -8 330 -37 355 -43 37 -110 41 -657 42 -488 0 -533 -1 -562 -18
-18 -9 -37 -25 -42 -35 -19 -37 -30 -125 -32 -255 l-1 -137 -254 0 c-140 0
-255 3 -255 8 -1 4 -3 59 -5 122 -4 151 -11 231 -19 253 -8 19 -31 34 -79 49
-40 13 -876 18 -933 6z"/>
</g>
</svg>
